<svg width="311" height="255" viewBox="0 0 311 255" fill="none" xmlns="http://www.w3.org/2000/svg">
<path d="M134.394 119.864V120.364H134.894H167.702L177.572 130.235V145.737H115.44L105.5 135.883V43.5H167.519L177.39 53.4572V68.9602H134.894H134.394V69.4602V81.4091V81.9091H134.894H164.292L174.167 91.8234V107.326H134.894H134.394V107.826V119.864Z" stroke="black"/>
<path d="M105.091 136H104.091V137H105.091V136ZM105.091 42.9091V41.9091H104.091V42.9091H105.091ZM167.818 42.9091H168.818V41.9091H167.818V42.9091ZM167.818 59.1364V60.1364H168.818V59.1364H167.818ZM124.773 59.1364V58.1364H123.773V59.1364H124.773ZM124.773 81.3182H123.773V82.3182H124.773V81.3182ZM164.591 81.3182H165.591V80.3182H164.591V81.3182ZM164.591 97.5455V98.5455H165.591V97.5455H164.591ZM124.773 97.5455V96.5455H123.773V97.5455H124.773ZM124.773 119.773H123.773V120.773H124.773V119.773ZM168 119.773H169V118.773H168V119.773ZM168 136V137H169V136H168ZM106.091 136V42.9091H104.091V136H106.091ZM105.091 43.9091H167.818V41.9091H105.091V43.9091ZM166.818 42.9091V59.1364H168.818V42.9091H166.818ZM167.818 58.1364H124.773V60.1364H167.818V58.1364ZM123.773 59.1364V81.3182H125.773V59.1364H123.773ZM124.773 82.3182H164.591V80.3182H124.773V82.3182ZM163.591 81.3182V97.5455H165.591V81.3182H163.591ZM164.591 96.5455H124.773V98.5455H164.591V96.5455ZM123.773 97.5455V119.773H125.773V97.5455H123.773ZM124.773 120.773H168V118.773H124.773V120.773ZM167 119.773V136H169V119.773H167ZM168 135H105.091V137H168V135Z" fill="black"/>
<path d="M167.5 58.5L177.5 69" stroke="black"/>
<path d="M174 107L164 97M134.5 69L124.5 59M134.5 107.5L124.5 97.5M177.5 145.5L167.5 135.5" stroke="black"/>
</svg>
