<?xml version="1.0" encoding="UTF-8"?>
<svg width="311" height="255" fill="none" version="1.1" viewBox="0 0 311 255" xmlns="http://www.w3.org/2000/svg">
 <path d="m104.09 41.908v1 93.092 1h1 0.82422l9.3184 9.2363h62.838v-16.209l-9.0723-9.0723v-1.1816-1h-1-33.105v-10.947h39.773v-16.209l-9.0762-9.1133v-1.1855-1h-1-29.697v-10.857h42.996v-16.209l-9.0723-9.1504v-1.1934-1h-1-62.727-1zm2 2.0918h60.727v14.137h-42.045-1v1 22.182 1h1 9.1211v0.089844h1 28.697v14.137h-38.818-1v1 22.229 1h1 9.1211v0.08984h1 32.105v14.137h-60.908v-91zm62.727 1.5215 8.0723 8.1406v13.973l-8.0723-8.4746v-0.023437-13.615zm-42.475 14.615h41.475 0.55078l7.9277 8.3242h-41.402-0.22656l-8.3242-8.3242zm-0.57031 0.84375 8.1211 8.1211v0.35938 10.857h-8.1211v-19.338zm39.818 22.941 8.0762 8.1074v13.932l-8.0762-8.0762v-0.33984-13.623zm-39.34 14.623h38.34 0.24609l8.2812 8.2812h-38.225-0.36133l-8.2812-8.2812zm-0.47851 0.93555 8.1211 8.1211v0.22461 10.947h-8.1211v-19.293zm43.227 22.889 8.0723 8.0723v13.924l-8.0723-8.0723v-0.29297-13.631zm-61.662 14.631h60.662 0.29297l8.2363 8.2363h-60.883l-8.3086-8.2363z" color="#000000" fill="#000" style="-inkscape-stroke:none"/>
</svg>
